<svg id="Capa_1" enable-background="new 0 0 512 512" height="512" viewBox="0 0 512 512" width="512" xmlns="http://www.w3.org/2000/svg"><g><path d="m434.17 122.82h-96.37l-23.075-44.717c-4.425-8.582-13.175-13.913-22.836-13.913h-71.779c-9.661 0-18.411 5.331-22.835 13.911l-23.075 44.719h-21.871v-21.165c0-8.254-6.716-14.97-14.97-14.97h-28.719c-8.255 0-14.971 6.716-14.971 14.97v21.165h-15.839c-8.254 0-14.969 6.716-14.969 14.97v232.033c0 8.254 6.717 14.97 14.974 14.97h356.33c8.255 0 14.971-6.716 14.971-14.97v-59.593c0-4.142-3.357-7.5-7.5-7.5s-7.485 3.358-7.485 7.5v59.563h-356.29v-154.125h84.181c-4.799 11.78-7.452 24.656-7.452 38.14 0 55.917 45.492 101.409 101.409 101.409s101.409-45.492 101.409-101.409c0-13.484-2.652-26.359-7.451-38.139h84.18v59.561c0 4.142 3.357 7.5 7.5 7.5s7.5-3.358 7.5-7.5v-137.44c.001-8.254-6.714-14.97-14.967-14.97zm-223.564-37.843c1.841-3.57 5.482-5.787 9.504-5.787h71.779c4.021 0 7.663 2.217 9.505 5.789l19.526 37.841h-129.841zm-101.965 16.693h28.688v21.15h-28.688zm147.359 238.547c-47.646 0-86.409-38.763-86.409-86.409s38.763-86.409 86.409-86.409 86.409 38.763 86.409 86.409-38.763 86.409-86.409 86.409zm0-187.818c-36.445 0-68.456 19.328-86.335 48.269h-91.821v-62.848c242.79-.014 111.08.003 356.293-.026v62.875h-91.802c-17.878-28.941-49.89-48.27-86.335-48.27z"/><path d="m256 187.472c-5.924 0-11.801.783-17.468 2.326-3.997 1.088-6.354 5.21-5.266 9.207 1.089 3.997 5.215 6.355 9.207 5.266 4.383-1.193 8.934-1.799 13.526-1.799 28.307 0 51.336 23.029 51.336 51.336s-23.028 51.336-51.335 51.336-51.336-23.029-51.336-51.336c0-12.122 4.304-23.887 12.117-33.126 2.675-3.163 2.279-7.895-.884-10.57-3.162-2.675-7.895-2.279-10.569.883-10.102 11.944-15.664 27.148-15.664 42.812 0 36.578 29.758 66.336 66.336 66.336s66.336-29.758 66.336-66.336-29.758-66.335-66.336-66.335z"/><path d="m469.094 42.959h-93.149l25.767-23.458c3.063-2.789 3.285-7.532.497-10.595s-7.531-3.286-10.595-.497l-33.358 30.369c-3.41 3.104-5.164 7.504-5.164 11.682 0 4.214 1.775 8.601 5.164 11.687l33.358 30.369c3.064 2.789 7.808 2.565 10.595-.497 2.788-3.063 2.566-7.806-.497-10.595l-25.776-23.466h93.158c15.388 0 27.906 12.519 27.906 27.906v164.598c0 4.142 3.357 7.5 7.5 7.5s7.5-3.358 7.5-7.5v-164.597c0-23.659-19.248-42.906-42.906-42.906z"/><path d="m153.744 449.853-33.358-30.369c-3.062-2.788-7.807-2.566-10.595.497s-2.566 7.806.497 10.595l25.776 23.466h-93.158c-15.387 0-27.906-12.519-27.906-27.907v-164.597c0-4.142-3.357-7.5-7.5-7.5s-7.5 3.358-7.5 7.5v164.598c0 23.659 19.248 42.906 42.906 42.906h93.149l-25.767 23.458c-3.063 2.789-3.285 7.532-.497 10.595 1.479 1.626 3.51 2.451 5.548 2.451 1.802 0 3.609-.646 5.047-1.954l33.358-30.369c3.415-3.109 5.164-7.511 5.164-11.682 0-4.214-1.774-8.602-5.164-11.688z"/></g></svg>